<svg width="251" height="106" viewBox="0 0 251 106" fill="none" xmlns="http://www.w3.org/2000/svg">
<g id="Layer_1" clip-path="url(#clip0_2_2)">
<path id="Vector" d="M168.308 89.2535H164.533V89.2177L165.425 88.204L168.898 79.0205L168.238 78.0067V77.971H172.067L175.522 88.204L176.447 89.2177V89.2535H171.622V89.2177L172.548 88.204L172.032 86.4422H168.042L167.437 88.204L168.31 89.2177V89.2535H168.308ZM168.629 84.7504H171.532L170.197 80.2643L168.63 84.7504H168.629ZM246.814 82.3122C244.767 81.7432 244.143 81.4927 244.143 80.5505C244.143 79.4652 245.551 79.2505 246.441 79.2505C247.189 79.2505 247.883 79.3391 248.507 79.535L250.217 81.3871H250.253L250.112 78.201C249.043 77.7921 247.921 77.5774 246.639 77.5774C243.95 77.5774 241.367 78.5025 241.367 81.1741C241.367 82.9 242.56 83.9325 245.143 84.6447C247.138 85.1968 248.117 85.5511 248.117 86.5666C248.117 87.7405 246.62 87.9893 245.623 87.9893C244.785 87.9893 244.037 87.8649 243.396 87.669L241.669 85.5341H241.633L241.757 88.9144C242.934 89.4494 244.357 89.6437 245.692 89.6437C248.577 89.6437 251 88.434 251 85.9958C251 83.6991 249.414 83.0415 246.814 82.3122ZM235.331 78.005L236.418 79.0188V84.9991L231.84 77.9693H227.726V78.005L228.563 79.0188V88.2023L227.726 89.216V89.2518H231.483V89.216L230.38 88.2023V80.7277L236.097 89.2535H238.235V79.0205L239.072 78.0067V77.971H235.333V78.0067L235.331 78.005ZM236.071 95.8182L236.624 96.6804H236.293L235.778 95.8319H235.434V96.6804H235.139V94.7227H235.884C236.346 94.7227 236.574 94.8931 236.574 95.2781C236.574 95.6291 236.354 95.7807 236.068 95.8165L236.071 95.8182ZM235.793 95.5797C236.044 95.5797 236.269 95.5661 236.269 95.2628C236.269 95.0191 236.049 94.9748 235.84 94.9748H235.435V95.578H235.793V95.5797ZM237.514 95.6973C237.514 96.6821 236.721 97.3993 235.795 97.3993C234.869 97.3993 234.07 96.6821 234.07 95.6973C234.07 94.7125 234.863 94.0054 235.795 94.0054C236.728 94.0054 237.514 94.7244 237.514 95.6973ZM237.173 95.6973C237.173 94.8948 236.564 94.2882 235.795 94.2882C235.026 94.2882 234.411 94.8948 234.411 95.6973C234.411 96.4997 235.018 97.1182 235.795 97.1182C236.573 97.1182 237.173 96.5151 237.173 95.6973ZM215.665 94.3104L216.591 95.3241V101.749C216.591 103.599 215.682 104.063 214.204 104.063C212.725 104.063 211.8 103.635 211.8 101.749V95.3241L212.725 94.3104V94.2746H208.078V94.3104L208.915 95.3241V101.749C208.915 104.828 210.482 105.949 213.829 105.949C216.874 105.949 218.423 104.898 218.423 101.838V95.3241L219.242 94.3104V94.2746H215.663V94.3104H215.665ZM219.431 89.6437C215.905 89.6437 213.626 86.7421 213.626 83.4521C213.626 80.162 216.243 77.5791 219.521 77.5791C223.136 77.5791 225.451 80.4091 225.451 83.648C225.451 87.3504 222.655 89.6454 219.431 89.6454V89.6437ZM222.423 84.4301C222.423 82.4724 221.694 79.3578 219.199 79.3578C217.204 79.3578 216.635 81.3513 216.635 82.7041C216.635 84.6805 217.455 87.8649 219.859 87.8649C221.586 87.8649 222.423 86.2276 222.423 84.4301ZM195.517 88.204V79.0205L194.68 78.0067V77.971H200.024C203.265 77.971 204.743 79.4464 204.743 81.6903C204.743 83.9342 202.98 85.4626 200.576 85.4626C199.793 85.4626 198.99 85.4097 198.404 85.2666V88.2023L199.579 89.216V89.2518H194.682V89.216L195.519 88.2023L195.517 88.204ZM198.402 83.7724C198.758 83.8797 199.168 83.9325 199.596 83.9325C201.162 83.9325 201.839 83.0789 201.839 81.8147C201.839 80.3188 200.966 79.6083 199.345 79.6083H198.402V83.7724ZM201.35 100.272L202.472 101.287V103.405C202.116 103.814 201.492 104.151 200.656 104.151C198.661 104.151 197.611 101.713 197.611 99.6671C197.611 97.4419 198.733 95.5746 201.048 95.5746C201.689 95.5746 202.366 95.6274 202.919 95.8233L204.7 97.7452H204.736L204.629 94.6494C203.595 94.1144 202.349 93.8844 201.084 93.8844C197.291 93.8844 194.602 96.2152 194.602 100.059C194.602 103.279 196.668 105.951 199.891 105.951C201.299 105.951 202.579 105.63 203.773 104.758L205.179 105.951H205.215V101.287L206.105 100.272V100.236H201.35V100.272ZM211.312 89.2177L210.492 88.204V79.0205L211.312 78.0067V77.971H206.77V78.0067L207.607 79.0205V88.204L206.77 89.2177V89.2535H211.312V89.2177ZM146.462 87.7593C144.147 87.7593 142.669 85.4097 142.669 83.3805C142.669 80.8896 144.023 79.271 145.963 79.271C146.479 79.271 146.979 79.3238 147.424 79.4482L149.168 81.6017H149.204L149.08 78.0425C148.58 77.8466 147.494 77.5791 146.159 77.5791C142.028 77.5791 139.658 80.3921 139.658 83.6293C139.658 86.8665 141.937 89.6437 145.855 89.6437C146.906 89.6437 148.456 89.2876 149.525 88.4868L149.685 86.6177H149.649C148.74 87.3299 147.439 87.7559 146.461 87.7559L146.462 87.7593ZM192.726 104.509L193.652 105.523V105.559H188.827V105.523L189.753 104.509L189.236 102.748H185.247L184.641 104.509L185.514 105.523V105.559H181.738V105.523L182.63 104.509L186.103 95.3258L185.443 94.3121V94.2763H189.272L192.726 104.509ZM188.737 101.056L187.402 96.5713L185.835 101.056H188.738H188.737ZM229.608 103.921H225.156V100.505H227.809L228.895 101.431H228.931V97.9429H228.895L227.809 98.868H225.156V95.8966H229.448L230.694 97.2324H230.73L230.588 94.278H221.434V94.3138L222.272 95.3275V104.511L221.434 105.525V105.561H230.98L231.212 102.161H231.176L229.61 103.923L229.608 103.921ZM158.677 89.2177V89.2535H163.219V89.2177L162.382 88.204V79.0205L163.219 78.0067V77.971H158.677V78.0067L159.497 79.0205V82.4366H155.454V79.0205L156.274 78.0067V77.971H151.732V78.0067L152.57 79.0205V88.204L151.732 89.2177V89.2535H156.274V89.2177L155.454 88.204V84.2358H159.497V88.204L158.677 89.2177ZM167.304 103.903H163.439V95.3258L164.489 94.3121V94.2763H159.715V94.3121L160.552 95.3258V104.509L159.715 105.506V105.559H168.673L169.101 102.018H169.065L167.302 103.904L167.304 103.903ZM180.56 81.2099L183.712 89.2535H185.475L188.396 81.1213L188.894 88.204L187.789 89.2177V89.2535H192.58V89.2177L191.654 88.204L190.977 79.0205L191.709 78.0067V77.971H187.719L185.011 85.4983L182.091 77.971H178.048V78.0067L178.868 79.0205L178.388 88.204L177.409 89.2177V89.2535H181.344V89.2177L180.365 88.204L180.562 81.2099H180.56ZM178.877 103.921H174.425V100.505H177.078L178.164 101.431H178.2V97.9429H178.164L177.078 98.868H174.425V95.8966H178.717L179.963 97.2324H179.999L179.857 94.278H170.703V94.3138L171.541 95.3275V104.511L170.703 105.525V105.561H180.249L180.481 102.161H180.446L178.879 103.923L178.877 103.921ZM207.288 71.2819L207.58 70.2783L206.327 69.3429L207.334 68.6205L207.919 69.0584L208.582 66.823L204.734 69.3106L203.157 68.4178L209.195 64.5127C209.426 64.3627 209.745 64.2298 210.148 64.5382L210.405 64.7376C210.812 65.0511 210.755 65.4089 210.674 65.6525L208.671 72.5444L207.288 71.2801V71.2819ZM214.137 65.7871L215.034 64.6796C214.589 64.2349 214.125 63.8022 213.641 63.3848C208.62 59.0537 202.116 56.6684 195.328 56.6684C188.541 56.6684 182.036 59.0537 177.015 63.3848C176.533 63.8022 176.069 64.2332 175.622 64.6796L176.519 65.7871C176.973 65.3288 177.445 64.8841 177.941 64.4581C182.705 60.3486 188.88 58.0859 195.328 58.0859C201.776 58.0859 207.952 60.3486 212.715 64.4581C213.21 64.8858 213.684 65.3288 214.137 65.7871ZM200.948 62.0285L203.49 62.6862L203.892 61.1374L201.278 60.461C199.846 60.0896 198.864 60.6263 198.516 61.9706L197.449 66.087C197.4 66.2778 197.42 66.4567 197.507 66.6066C197.594 66.7549 197.742 66.8605 197.933 66.9099L198.903 67.1621L199.591 64.5007L202.532 65.2623L202.929 63.7306L199.986 62.969L200.1 62.5294C200.252 61.945 200.426 61.8973 200.946 62.0319L200.948 62.0285ZM192.701 59.7574L188.459 60.6178C188.264 60.657 188.113 60.7541 188.016 60.8989C187.92 61.0437 187.889 61.2226 187.929 61.4152L188.774 65.5775C188.912 66.254 189.216 66.7412 189.678 67.0275C189.983 67.2149 190.35 67.3103 190.771 67.3086C190.986 67.3086 191.216 67.283 191.458 67.2336L194.109 66.6952L193.79 65.1243L191.211 65.6474C190.682 65.7547 190.512 65.6968 190.391 65.1039L190.3 64.6575L193.284 64.0526L192.968 62.4988L189.985 63.1036L189.758 61.9893L193.018 61.3283L192.699 59.7574H192.701ZM183.745 69.1572C183.419 69.4213 183.041 69.5508 182.706 69.5116C182.284 69.4639 182.026 69.2901 181.603 68.7705L179.175 65.7871L177.866 66.8503L180.51 70.1011C181.073 70.7895 181.712 71.1592 182.469 71.2273C182.558 71.2358 182.647 71.241 182.734 71.241C183.465 71.2478 184.145 70.9888 184.805 70.4572C185.54 69.8575 185.942 69.1623 186.036 68.3309C186.123 67.5778 185.891 66.8758 185.332 66.1841L182.688 62.9332L181.378 63.9964L183.806 66.9815C184.229 67.4994 184.347 67.7874 184.307 68.2116C184.278 68.5456 184.074 68.8897 183.746 69.1555L183.745 69.1572ZM195.328 68.4621C190.377 68.4621 185.884 70.677 183.143 73.95L184.012 75.0234C186.502 71.9276 190.735 69.7996 195.328 69.7996C199.921 69.7996 204.155 71.9276 206.644 75.0234L207.513 73.95C204.774 70.6753 200.281 68.4621 195.328 68.4621ZM218.185 30.2221C218.118 30.2527 218.042 30.205 218.038 30.1318C217.881 27.07 217.602 24.0952 217.453 23.0082C217.465 20.3639 217.027 17.6208 216.591 15.5984C216.575 15.5251 216.638 15.4604 216.713 15.474C219.211 15.9851 220.014 16.9205 220.014 16.9205C218.691 13.9508 216.787 11.7137 214.715 10.0235C212.945 6.31097 210.906 4.59525 210.906 4.59525C211.072 5.41648 210.957 6.34505 210.666 7.30258C210.647 7.36392 210.577 7.39288 210.521 7.36562C207.128 5.70442 203.623 4.94453 202.267 4.7554C200.242 3.76891 198.029 3.11806 196.23 2.62225C196.182 2.60862 196.169 2.54728 196.208 2.51491C198.597 0.529989 200.792 0.0256649 200.792 0.0256649C196.903 -0.131084 193.557 0.574287 190.757 1.65109C186.577 1.31544 183.912 2.04296 183.912 2.04296C183.912 2.04296 185.066 3.42644 185.514 4.19656C185.569 4.29027 185.54 4.40953 185.451 4.47087C182.821 6.29564 180.935 8.30101 180.19 9.13587C179.361 9.24832 177.926 9.44596 176.671 9.75605C176.621 9.76797 176.579 9.71856 176.599 9.67086C177.856 6.67729 179.223 5.0212 179.223 5.0212C179.223 5.0212 171.154 10.7562 169.624 21.0624C169.624 21.0624 170.287 19.236 172.536 16.4673C172.565 16.4315 172.623 16.4383 172.642 16.4809C173.278 17.8917 174.006 19.144 174.373 19.7199C173.136 21.7099 172.284 23.8822 171.759 25.6576C171.74 25.7189 171.694 25.7683 171.633 25.7922C169.764 26.5027 169.287 27.1791 169.287 27.1791C169.576 28.1724 170.148 29.1401 170.869 30.0534C170.932 30.1318 170.963 30.2306 170.959 30.3311C170.761 34.7286 172.178 37.625 172.178 37.625C172.499 36.0882 173.124 34.5974 173.917 33.1969C173.948 33.1407 174.023 33.127 174.072 33.1662C175.917 34.6315 177.828 35.9144 178.585 36.3694C178.978 37.3695 180.096 39.9627 181.593 42.6223C181.624 42.6785 181.598 42.7484 181.538 42.7705C179.747 43.4231 177.909 43.7195 176.224 43.3089C176.224 43.3089 178.256 45.8425 184.526 46.9227C186.265 48.9792 188.382 50.6829 190.854 51.2742C190.854 51.2742 190.13 50.4768 189.951 47.5071C189.947 47.4474 189.995 47.3963 190.055 47.3963C191.603 47.4202 193.703 47.4526 195.625 47.3128C196.307 47.8495 197.793 49.0303 199.243 49.7816C199.314 49.8191 199.319 49.9214 199.25 49.9622C196.701 51.5042 195.006 51.6388 195.006 51.6388C206.55 51.8841 213.482 44.3516 213.482 44.3516C211.581 45.6022 209.385 46.3809 207.198 46.8443C207.125 46.8596 207.06 46.7949 207.075 46.7199C207.481 44.7554 207.367 42.8557 207.34 42.1861C210.079 41.5063 212.468 40.283 214.238 39.0307C214.274 39.0051 214.321 39.0051 214.357 39.0307C215.094 39.5435 215.724 40.1177 216.354 41.0752C216.354 41.0752 217.55 39.38 217.963 35.4527C220.928 31.58 221.37 27.6152 221.37 27.6152C220.626 28.7789 219.503 29.6172 218.186 30.2186L218.185 30.2221ZM193.327 5.7402C193.425 5.58686 193.587 5.48293 193.77 5.45907C197.492 4.96668 200.896 4.89512 202.204 4.9309C204.586 6.51713 206.913 8.60939 208.77 10.5926C208.9 10.7323 208.92 10.9419 208.818 11.102C207.491 13.1773 205.565 15.1707 204.719 16.0379C201.58 16.7825 198.25 17.8661 195.55 18.7538C195.287 18.8407 194.997 18.7419 194.841 18.5136C192.791 15.5319 191.487 12.9745 190.977 12.0255C191.531 9.53967 192.307 7.32473 193.33 5.7385L193.327 5.7402ZM175.083 24.6575C174.78 22.7049 174.581 20.6552 174.56 19.7164C174.509 17.5492 174.853 15.629 175.254 13.852C175.319 13.5606 175.471 13.2965 175.69 13.0955C176.85 12.0306 178.949 10.1547 180.272 9.30284C181.52 8.50205 184.988 7.38096 186.418 6.96352C186.696 6.88345 186.991 7.00612 187.134 7.25658C187.306 7.55985 187.485 7.85972 187.676 8.15448C188.803 9.90939 190.043 11.4224 190.566 12.0766C189.874 14.8317 189.579 17.9206 189.444 20.5257C189.432 20.7694 189.277 20.9841 189.049 21.0727C185.429 22.4868 182.694 23.5926 181.775 24.0168C179.29 24.1225 176.921 24.5467 175.322 24.8261C175.21 24.8466 175.102 24.7682 175.085 24.6558L175.083 24.6575ZM185.255 40.927C185.042 41.0599 184.771 41.0514 184.566 40.9066C182.735 39.6083 180.55 37.9488 178.73 36.2467C177.656 34.41 176.829 32.0587 176.251 30.0551C176.214 29.9256 176.243 29.7876 176.328 29.682C178.371 27.1671 180.821 25.1788 181.845 24.4206C184.157 25.4191 186.81 26.2999 189.131 27.0734C189.368 27.1518 189.535 27.3648 189.555 27.6152C189.882 31.7504 190.639 35.0932 190.841 36.3711C189.975 37.2979 187.71 39.4004 185.255 40.9253V40.927ZM210.7 36.8328C208.942 39.7803 207.607 41.5557 207.179 42.0958C206.598 42.917 205.118 45.057 202.818 47.2191C202.671 47.3571 202.48 47.4372 202.278 47.4457C199.398 47.5667 196.719 47.364 195.678 47.1356C194.794 46.7693 192.74 45.8442 190.31 44.4999C190.099 44.3823 189.975 44.154 189.99 43.9138C190.116 42.0277 190.714 39.3425 191.243 36.5023C192.549 34.2038 193.904 31.5834 195.308 29.4298C195.456 29.2032 195.732 29.0975 195.995 29.1691C200.201 30.3192 203.849 31.1915 205.331 31.5255C207.36 33.8818 209.326 35.5379 210.647 36.5653C210.729 36.63 210.751 36.7442 210.697 36.8345L210.7 36.8328ZM213.742 31.2171C213.68 31.3432 213.557 31.43 213.418 31.4471C210.229 31.8168 206.842 31.3738 205.536 31.1677C203.355 28.9868 200.995 26.5589 199.255 24.4394C199.076 24.2213 199.067 23.9112 199.232 23.6829C201.713 20.2174 203.986 17.4691 204.947 16.3804C207.692 15.7807 210.429 15.2508 212.277 15.1758C212.417 15.1707 212.55 15.2338 212.632 15.3479C215.015 18.6669 216.718 21.8479 217.266 23.0099C216.171 25.954 214.855 28.9272 213.742 31.2188V31.2171Z" fill="white"/>
<path id="Vector_2" d="M121.797 0.414062H121.626V106H121.797V0.414062Z" fill="white"/>
<path id="Vector_3" d="M122.308 0.414062H121.115V106H122.308V0.414062Z" fill="white"/>
<path id="Vector_4" d="M101.685 51.1141C101.363 50.2793 96.9216 42.067 88.6815 31.805C88.482 31.5579 88.3303 31.2513 88.3013 30.9292C87.3465 20.2124 85.8189 13.1041 85.8189 13.1041C85.5785 11.8774 84.518 10.9744 83.3024 10.8296L74.7401 9.79365C74.6668 9.78513 74.5901 9.78002 74.5133 9.78002C73.5142 9.78002 72.7044 10.5893 72.7044 11.5877V14.5609C72.7044 14.6205 72.6549 14.6682 72.5953 14.6682C72.568 14.6682 72.5441 14.658 72.5237 14.6427C67.3951 10.0271 61.6205 5.54609 55.2218 1.59839C54.0044 0.785678 52.5569 0.31543 50.9833 0.31543H50.9798C49.4062 0.31543 47.9587 0.783974 46.7413 1.59839C17.1791 19.8358 0.907036 49.4853 0.279613 51.1141C0.100592 51.4924 0 51.9166 0 52.363C0 53.7312 0.93943 54.8795 2.20962 55.2015L10.7259 56.8389C11.8631 57.1507 12.7258 58.1287 12.8537 59.323C12.9236 60.8258 14.533 94.3838 16.5551 103.088C16.8859 104.342 18.0316 105.268 19.3904 105.268H19.4552C24.4235 105.143 28.974 105.061 33.8877 104.995H33.874H33.9201C34.0462 104.995 34.1724 104.992 34.2986 104.99C34.8237 104.99 35.2482 104.559 35.2482 104.034C35.2482 104.026 35.2482 104.019 35.2482 104.01C35.0488 101.08 34.6191 94.3803 34.2713 87.3266C34.2628 87.1494 34.2491 86.9279 34.2406 86.7473C34.2082 86.134 33.8706 85.599 33.3745 85.2991C30.8188 83.7708 29.0678 81.0396 28.9058 77.8876C28.4591 66.1195 28.2323 52.5181 28.8768 41.8761C28.928 40.9902 29.656 40.2797 30.5579 40.2644C31.5041 40.2473 32.285 41.0004 32.3004 41.946C32.3004 41.9903 32.3004 42.0363 32.297 42.0806C31.8775 49.1752 31.8383 57.5613 31.9918 65.8366C32.0105 66.9543 32.9346 67.8471 34.0531 67.8267C35.1715 67.8079 36.0632 66.8845 36.0444 65.7651C35.891 57.4335 35.9319 48.9929 36.3633 41.8744C36.4144 40.9885 37.1424 40.278 38.0444 40.2626C38.9906 40.2456 39.7715 40.9987 39.7868 41.9443C39.7868 41.9886 39.7868 42.0346 39.7834 42.0789C39.3657 49.136 39.3265 57.4727 39.4765 65.7054C39.4765 65.7054 39.4765 65.7089 39.4765 65.7106C39.4987 66.8265 40.4194 67.7125 41.5361 67.6938C42.6494 67.675 43.5377 66.7601 43.5258 65.6475C43.374 57.3551 43.4184 48.9588 43.8463 41.8744C43.8975 40.9885 44.6255 40.278 45.5274 40.2626C46.4736 40.2456 47.2545 40.9987 47.2699 41.9443C47.2699 41.9886 47.2699 42.0346 47.2665 42.0789C46.6544 52.4243 46.8539 65.5214 47.275 77.0084C47.275 77.0152 47.2784 77.1089 47.2784 77.1158C47.2801 77.1737 47.2818 77.2316 47.2818 77.2913C47.2818 77.3287 47.2818 77.3662 47.2818 77.4037C47.2818 80.5455 45.7047 83.3193 43.2973 84.9771C42.8677 85.2735 42.5778 85.7523 42.5403 86.3078C42.5403 86.3078 42.3289 88.0712 43.1098 96.6208C43.4729 100.352 43.7508 102.939 43.8804 104.109C43.9316 104.552 44.3084 104.896 44.7653 104.896C45.0313 104.896 45.2972 104.894 45.57 104.893H45.5734C45.5734 104.893 45.5717 104.893 45.57 104.893H45.5598C47.2 104.886 48.893 104.883 50.6508 104.883H50.9798H51.3089C53.5322 104.883 55.6497 104.889 57.6888 104.898L62.5207 104.94C62.5207 104.94 62.5241 104.94 62.5258 104.94C62.9861 104.94 63.3612 104.593 63.4277 104.145C64.5462 93.8999 64.8087 88.1461 64.8087 88.1461C64.8087 87.6282 64.4132 87.2397 63.8932 87.1597L58.0247 86.3503C57.0972 86.1868 56.5448 85.616 56.347 84.914C56.226 84.4881 56.2737 84.0093 56.2737 84.0093C58.6521 49.8635 69.9185 38.3561 69.9185 38.3561C70.2509 38.017 70.4641 37.8841 70.4641 37.8841C70.7624 37.6678 71.1273 37.54 71.5246 37.54C72.2884 37.54 72.9414 38.0153 73.2056 38.6866C73.2056 38.6866 73.2977 38.9252 73.3506 39.5079C74.3224 50.2418 73.8484 68.5065 73.2466 82.7553C72.7368 94.8489 72.1179 104.342 72.1179 104.342C72.1179 104.342 72.1179 104.354 72.1179 104.361C72.1179 104.75 72.4333 105.065 72.822 105.065C76.0205 105.119 79.1696 105.184 82.5062 105.266H82.5709C83.9298 105.266 85.0755 104.341 85.4063 103.087C87.4284 94.382 89.0378 60.8241 89.1077 59.3213C89.2373 58.127 90.0983 57.149 91.2355 56.8372L99.7518 55.1998C101.022 54.8795 101.961 53.7295 101.961 52.3613C101.961 51.9149 101.861 51.4907 101.682 51.1124L101.685 51.1141Z" fill="white"/>
</g>
<defs>
<clipPath id="clip0_2_2">
<rect width="251" height="106" fill="white"/>
</clipPath>
</defs>
</svg>
