<svg width="32" height="32" viewBox="0 0 32 32" fill="none" xmlns="http://www.w3.org/2000/svg">
<g id="Layer_1" clip-path="url(#clip0_2_155)">
<g id="Meal deal badge (burger drink UEFA food) 32">
<g id="Layer 1">
<g id="Clip path group">
<mask id="mask0_2_155" style="mask-type:luminance" maskUnits="userSpaceOnUse" x="0" y="0" width="32" height="32">
<g id="clippath">
<path id="Vector" d="M32 0H0V32H32V0Z" fill="white"/>
</g>
</mask>
<g mask="url(#mask0_2_155)">
<g id="Group">
<g id="Clip path group_2">
<mask id="mask1_2_155" style="mask-type:luminance" maskUnits="userSpaceOnUse" x="0" y="0" width="32" height="32">
<g id="clippath-1">
<path id="Vector_2" d="M32 0H0V32H32V0Z" fill="white"/>
</g>
</mask>
<g mask="url(#mask1_2_155)">
<g id="Group_2">
<path id="Vector_3" d="M21 5.99999H19V8.99999H15.05L15.39 12.22C14.69 12.02 13.94 11.9 13.15 11.9C9.94 11.9 7.21 13.76 6.8 16.23L6.74 16.59C6.37 16.48 5.94 16.39 5.38 16.39V18.39C6.09 18.39 6.38 18.56 6.83 18.82C7.37 19.13 8.03 19.51 9.27 19.51C10.51 19.51 11.18 19.13 11.72 18.82C12.17 18.56 12.46 18.39 13.17 18.39C13.88 18.39 14.18 18.56 14.63 18.82C15.17 19.13 15.84 19.51 17.08 19.51C18.32 19.51 18.99 19.13 19.53 18.82C19.98 18.56 20.27 18.39 20.98 18.39V16.39C20.39 16.39 19.94 16.48 19.57 16.6L19.51 16.23C19.32 15.04 18.58 14 17.52 13.24L17.28 11H22.91L21.93 21.66C21.93 21.74 21.85 21.8 21.76 21.8H19.37C19.49 21.38 19.57 20.9 19.57 20.33H17.57C17.57 21.65 17.57 22.38 13.17 22.38C8.77 22.38 8.77 21.65 8.77 20.33H6.77C6.77 24.08 9.67 24.38 13.17 24.38C14.88 24.38 16.45 24.3 17.6 23.79H21.76C22.88 23.79 23.83 22.92 23.93 21.82L25.11 8.98999H21.01V5.98999L21 5.99999ZM15.62 17.08C15.08 16.77 14.41 16.39 13.17 16.39C11.93 16.39 11.26 16.77 10.72 17.08C10.27 17.34 9.98 17.51 9.27 17.51C9.01 17.51 8.81 17.48 8.63 17.44L8.77 16.56C9.02 15.07 10.94 13.91 13.15 13.91C15.36 13.91 17.29 15.07 17.53 16.56L17.67 17.46C17.5 17.5 17.31 17.52 17.07 17.52C16.36 17.52 16.06 17.35 15.61 17.09" fill="white"/>
<path id="Vector_4" d="M16 32H15.92C14.31 31.86 12.76 31.2 11.56 30.12C11.24 29.87 10.85 29.62 10.44 29.41C9.98 29.25 9.49 29.14 9 29.08C7.46 28.99 5.97 28.39 4.75 27.36L4.63 27.24C3.6 26.01 3.01 24.52 2.91 22.93C2.86 22.5 2.75 22.02 2.59 21.55C2.38 21.14 2.13 20.75 1.85 20.39C0.8 19.24 0.14 17.69 0 16.08V16V15.92C0.13 14.31 0.8 12.77 1.87 11.56C2.12 11.24 2.37 10.85 2.58 10.44C2.74 9.97 2.85 9.49 2.91 9C3 7.49 3.61 5.96 4.63 4.75L4.75 4.63C5.96 3.62 7.49 3.01 9.06 2.91C9.49 2.85 9.97 2.74 10.44 2.59C10.85 2.38 11.24 2.13 11.6 1.85C12.76 0.8 14.31 0.14 15.92 0H16H16.08C17.69 0.13 19.23 0.8 20.44 1.87C20.76 2.12 21.15 2.37 21.56 2.58C22.03 2.74 22.51 2.85 23 2.91C24.54 3 26.03 3.6 27.25 4.63L27.37 4.75C28.38 5.96 28.99 7.49 29.09 9.06C29.14 9.49 29.25 9.97 29.41 10.44C29.62 10.85 29.86 11.23 30.14 11.58C31.2 12.78 31.86 14.32 31.99 15.91V15.99V16.07C31.86 17.68 31.19 19.22 30.12 20.43C29.87 20.75 29.62 21.14 29.41 21.55C29.25 22.02 29.14 22.5 29.08 22.99C28.99 24.53 28.39 26.02 27.36 27.24L27.24 27.36C26.02 28.39 24.53 28.98 22.93 29.08C22.5 29.14 22.02 29.24 21.55 29.4C21.14 29.61 20.75 29.86 20.38 30.14C19.22 31.18 17.68 31.84 16.07 31.98H15.99L16 32ZM6.11 25.89C6.99 26.61 8.05 27.02 9.19 27.09C9.9 27.18 10.54 27.33 11.16 27.54L11.27 27.59C11.83 27.86 12.36 28.2 12.85 28.59C13.75 29.4 14.86 29.88 16 29.99C17.15 29.88 18.25 29.39 19.11 28.63C19.64 28.21 20.18 27.87 20.73 27.59L20.84 27.54C21.46 27.33 22.1 27.18 22.75 27.1C23.94 27.02 25.01 26.61 25.89 25.89C26.61 25.01 27.02 23.95 27.09 22.81C27.17 22.11 27.32 21.47 27.54 20.84L27.59 20.72C27.87 20.16 28.2 19.63 28.59 19.14C29.39 18.24 29.88 17.14 29.99 15.99C29.88 14.84 29.39 13.74 28.63 12.88L28.6 12.84C28.21 12.36 27.88 11.82 27.6 11.26L27.55 11.14C27.34 10.52 27.19 9.88 27.11 9.23C27.03 8.05 26.61 6.96 25.9 6.09C25.02 5.37 23.96 4.96 22.82 4.89C22.11 4.8 21.47 4.65 20.85 4.44L20.74 4.39C20.18 4.11 19.65 3.78 19.16 3.39C18.26 2.58 17.16 2.1 16.01 1.99C14.86 2.1 13.76 2.59 12.9 3.35C12.37 3.78 11.83 4.11 11.28 4.39L11.17 4.44C10.56 4.65 9.91 4.8 9.26 4.88C8.08 4.96 6.99 5.38 6.12 6.09C5.41 6.96 4.99 8.05 4.92 9.17C4.83 9.88 4.69 10.52 4.47 11.14L4.42 11.25C4.14 11.81 3.81 12.34 3.42 12.83C2.61 13.73 2.13 14.84 2.02 15.98C2.13 17.13 2.62 18.23 3.38 19.09C3.81 19.62 4.14 20.15 4.42 20.71L4.47 20.82C4.68 21.44 4.83 22.08 4.91 22.73C4.99 23.92 5.4 24.99 6.12 25.87" fill="white"/>
</g>
</g>
</g>
</g>
</g>
</g>
</g>
</g>
</g>
<defs>
<clipPath id="clip0_2_155">
<rect width="32" height="32" fill="white"/>
</clipPath>
</defs>
</svg>
